<svg xmlns="http://www.w3.org/2000/svg" viewBox="0 0 24 24" width="16" height="16" color="currentColor" fill="none">
    <path d="M2 11.9999L4 11.9999" stroke="currentColor" stroke-width="1.5" stroke-linecap="round" stroke-linejoin="round"></path>
    <path d="M8 11.9999L10 11.9999" stroke="currentColor" stroke-width="1.5" stroke-linecap="round" stroke-linejoin="round"></path>
    <path d="M14 11.9999L16 11.9999" stroke="currentColor" stroke-width="1.5" stroke-linecap="round" stroke-linejoin="round"></path>
    <path d="M20 11.9998L22 11.9998" stroke="currentColor" stroke-width="1.5" stroke-linecap="round" stroke-linejoin="round"></path>
    <path d="M12.75 16.9998C12.75 16.5855 12.4142 16.2498 12 16.2498C11.5858 16.2498 11.25 16.5855 11.25 16.9998H12H12.75ZM11.25 21.9998C11.25 22.414 11.5858 22.7498 12 22.7498C12.4142 22.7498 12.75 22.414 12.75 21.9998H12H11.25ZM12 15.9998L12 15.2498L12 15.9998ZM14.3961 19.4445C14.6417 19.778 15.1112 19.8493 15.4448 19.6036C15.7783 19.358 15.8495 18.8885 15.6039 18.555L15 18.9997L14.3961 19.4445ZM8.3961 18.555C8.15047 18.8885 8.22172 19.358 8.55525 19.6037C8.88877 19.8493 9.35827 19.778 9.6039 19.4445L9 18.9998L8.3961 18.555ZM12 16.9998H11.25L11.25 21.9998H12H12.75L12.75 16.9998H12ZM12 15.9998L12 16.7498C11.8899 16.7498 11.866 16.7091 11.9686 16.771C12.0507 16.8204 12.1639 16.9053 12.3056 17.0305C12.5875 17.2795 12.9127 17.6258 13.2301 17.9915C13.5443 18.3534 13.8366 18.7174 14.0512 18.9924C14.1581 19.1295 14.2451 19.2435 14.305 19.3229C14.335 19.3625 14.3582 19.3935 14.3736 19.4142C14.3814 19.4246 14.3872 19.4324 14.391 19.4375C14.3929 19.4401 14.3942 19.442 14.3951 19.4431C14.3955 19.4437 14.3958 19.4441 14.396 19.4444C14.3961 19.4445 14.3961 19.4445 14.3962 19.4446C14.3962 19.4446 14.3962 19.4446 14.3962 19.4446C14.3961 19.4445 14.3961 19.4445 15 18.9997C15.6039 18.555 15.6038 18.5549 15.6038 18.5548C15.6038 18.5548 15.6037 18.5547 15.6036 18.5546C15.6035 18.5545 15.6034 18.5543 15.6032 18.554C15.6028 18.5535 15.6023 18.5528 15.6017 18.552C15.6004 18.5503 15.5986 18.5478 15.5963 18.5447C15.5917 18.5385 15.585 18.5294 15.5764 18.5179C15.5591 18.4947 15.534 18.4612 15.502 18.4188C15.438 18.3341 15.3462 18.2137 15.2337 18.0696C15.0093 17.782 14.6997 17.3961 14.3628 17.008C14.029 16.6237 13.6537 16.22 13.2988 15.9065C13.1223 15.7505 12.9332 15.6009 12.7431 15.4864C12.5736 15.3842 12.3077 15.2498 12 15.2498L12 15.9998ZM9 18.9998C9.6039 19.4445 9.60387 19.4445 9.60385 19.4446C9.60385 19.4446 9.60384 19.4446 9.60385 19.4446C9.60387 19.4446 9.60392 19.4445 9.604 19.4444C9.60417 19.4441 9.60447 19.4437 9.6049 19.4432C9.60576 19.442 9.60714 19.4401 9.60904 19.4376C9.61282 19.4325 9.61863 19.4246 9.62637 19.4142C9.64185 19.3935 9.66501 19.3625 9.69496 19.3229C9.75488 19.2435 9.84186 19.1295 9.94884 18.9924C10.1634 18.7175 10.4556 18.3534 10.7699 17.9915C11.0873 17.6258 11.4125 17.2795 11.6943 17.0305C11.8361 16.9053 11.9493 16.8204 12.0313 16.771C12.1339 16.7091 12.11 16.7498 12 16.7498L12 15.9998L12 15.2498C11.6923 15.2498 11.4264 15.3842 11.2569 15.4863C11.0668 15.6009 10.8777 15.7505 10.7011 15.9065C10.3463 16.22 9.97093 16.6237 9.6372 17.008C9.30024 17.3962 8.9907 17.7821 8.76631 18.0696C8.65381 18.2138 8.56199 18.3341 8.498 18.4188C8.466 18.4612 8.44091 18.4947 8.42364 18.5179C8.415 18.5295 8.40831 18.5385 8.40369 18.5447C8.40138 18.5479 8.39958 18.5503 8.39831 18.552C8.39767 18.5529 8.39717 18.5536 8.3968 18.554C8.39662 18.5543 8.39647 18.5545 8.39635 18.5547C8.39629 18.5547 8.39623 18.5548 8.3962 18.5549C8.39615 18.5549 8.3961 18.555 9 18.9998Z" fill="currentColor"></path>
    <path d="M11.25 6.99976C11.25 7.41397 11.5858 7.74976 12 7.74976C12.4142 7.74976 12.75 7.41397 12.75 6.99976H12H11.25ZM12.75 1.99976C12.75 1.58554 12.4142 1.24976 12 1.24976C11.5858 1.24976 11.25 1.58554 11.25 1.99976L12 1.99976L12.75 1.99976ZM12 7.99976L12 8.74976L12 7.99976ZM15.6039 5.44454C15.8495 5.11102 15.7783 4.64152 15.4448 4.39589C15.1112 4.15025 14.6417 4.2215 14.3961 4.55502L15 4.99978L15.6039 5.44454ZM9.6039 4.555C9.35827 4.22148 8.88877 4.15023 8.55525 4.39586C8.22172 4.64149 8.15047 5.11099 8.3961 5.44451L9 4.99976L9.6039 4.555ZM12 6.99976H12.75L12.75 1.99976L12 1.99976L11.25 1.99976L11.25 6.99976H12ZM12 7.99976L12 8.74976C12.3077 8.74975 12.5736 8.61535 12.7431 8.51316C12.9332 8.39857 13.1223 8.24904 13.2988 8.09305C13.6537 7.77955 14.029 7.37585 14.3628 6.99148C14.6997 6.60338 15.0093 6.21748 15.2337 5.92995C15.3462 5.78579 15.438 5.66544 15.502 5.58072C15.534 5.53834 15.5591 5.50483 15.5764 5.48165C15.585 5.47006 15.5917 5.46105 15.5963 5.45481C15.5986 5.45169 15.6004 5.44925 15.6017 5.44754C15.6023 5.44668 15.6028 5.446 15.6032 5.4455C15.6034 5.44525 15.6035 5.44504 15.6036 5.44488C15.6037 5.4448 15.6038 5.44472 15.6038 5.44468C15.6038 5.44461 15.6039 5.44454 15 4.99978C14.3961 4.55502 14.3961 4.55498 14.3962 4.55495C14.3962 4.55495 14.3962 4.55494 14.3962 4.55495C14.3961 4.55497 14.3961 4.55504 14.396 4.55516C14.3958 4.55538 14.3955 4.55579 14.3951 4.55637C14.3942 4.55754 14.3929 4.55941 14.391 4.56196C14.3872 4.56707 14.3814 4.57491 14.3736 4.58529C14.3582 4.60606 14.335 4.637 14.305 4.67665C14.2451 4.75599 14.1581 4.87001 14.0512 5.0071C13.8366 5.28206 13.5443 5.64616 13.2301 6.00805C12.9127 6.37368 12.5875 6.71997 12.3056 6.96897C12.1639 7.09422 12.0507 7.17907 11.9686 7.22854C11.866 7.29041 11.8899 7.24976 12 7.24976L12 7.99976ZM9 4.99976C8.3961 5.44451 8.39615 5.44457 8.3962 5.44465C8.39623 5.44469 8.39629 5.44477 8.39635 5.44485C8.39647 5.44501 8.39662 5.44521 8.3968 5.44546C8.39717 5.44596 8.39767 5.44664 8.39831 5.4475C8.39958 5.44922 8.40138 5.45165 8.40369 5.45478C8.40831 5.46102 8.415 5.47003 8.42364 5.48162C8.44091 5.5048 8.466 5.53831 8.498 5.58069C8.56199 5.66541 8.65381 5.78576 8.76631 5.92992C8.9907 6.21746 9.30024 6.60336 9.6372 6.99146C9.97093 7.37584 10.3463 7.77954 10.7011 8.09304C10.8777 8.24904 11.0668 8.39857 11.2569 8.51316C11.4264 8.61535 11.6923 8.74976 12 8.74976L12 7.99976L12 7.24976C12.11 7.24975 12.134 7.29042 12.0313 7.22854C11.9493 7.17907 11.8361 7.09423 11.6943 6.96897C11.4125 6.71998 11.0873 6.37368 10.7699 6.00805C10.4556 5.64616 10.1634 5.28206 9.94884 5.00709C9.84186 4.87 9.75488 4.75598 9.69496 4.67664C9.66501 4.63698 9.64185 4.60604 9.62637 4.58528C9.61863 4.57489 9.61282 4.56706 9.60904 4.56195C9.60714 4.5594 9.60576 4.55752 9.6049 4.55636C9.60447 4.55578 9.60417 4.55537 9.604 4.55514C9.60392 4.55503 9.60387 4.55496 9.60385 4.55494C9.60384 4.55492 9.60385 4.55494 9.60385 4.55494C9.60387 4.55496 9.6039 4.555 9 4.99976Z" fill="currentColor"></path>
</svg>
